# 3ds Max Wavefront OBJ Exporter v0.97b - (c)2007 guruware
# File Created: 07.08.2019 15:46:10

#
# object Object009
#

v  -19.7888 -17.8046 19.2062
v  -20.9786 -17.8867 8.1643
v  -9.9368 -18.0025 8.7676
v  -8.7469 -17.8204 19.8095
v  3.1866 -17.9926 9.0071
v  4.3764 -17.9327 20.0489
v  14.2284 -17.8664 6.7015
v  15.4183 -17.8187 17.7434
v  -21.4509 -18.0515 -4.9590
v  -10.4091 -17.9583 -4.3557
v  2.7143 -18.0067 -4.1163
v  13.7561 -17.8314 -6.4218
v  -16.9037 -18.0135 -16.0009
v  -5.8618 -17.9679 -15.3976
v  7.2615 -17.9318 -15.1581
v  18.3034 -17.7590 -17.4637
v  -17.7801 67.5570 18.1877
v  -6.7383 67.5411 18.4133
v  -7.1831 67.3590 7.3714
v  -18.2249 67.4749 7.1459
v  6.3851 67.4288 16.9202
v  5.9403 67.3689 5.8783
v  17.4270 67.5429 16.3640
v  16.9821 67.4951 5.3221
v  -4.2382 67.4033 -5.7519
v  -15.2801 67.3100 -5.9775
v  8.8851 67.3549 -7.2450
v  19.9270 67.5302 -7.8012
v  -3.1412 67.3937 -16.7938
v  -14.1831 67.3480 -17.0193
v  9.9821 67.4297 -18.2869
v  21.0240 67.6025 -18.8431
v  -19.8572 -15.7611 21.6239
v  -8.8154 -15.7340 21.6134
v  -9.9106 15.2558 19.7896
v  -20.9525 15.2287 21.6966
v  4.3080 -15.8613 22.0570
v  3.2127 15.1286 19.8713
v  15.3498 -15.7539 19.6164
v  14.2546 15.2360 17.3131
v  -4.0278 40.5720 21.0756
v  -15.0697 40.5449 19.1315
v  9.0955 40.4448 20.9990
v  20.1374 40.5522 18.6180
v  -5.5839 65.4645 20.2411
v  -16.6257 65.4374 19.6349
v  7.5395 65.3373 19.1077
v  18.5813 65.4447 18.2163
v  16.8367 -15.7260 17.3119
v  16.8573 -15.7733 6.2701
v  20.4545 15.2165 4.0562
v  16.6934 15.2639 15.0981
v  15.9825 -15.7358 -6.8533
v  20.2933 27.4469 -9.0671
v  20.7961 -15.6705 -17.8951
v  25.3388 27.5122 -20.1090
v  17.9182 40.5327 5.4944
v  21.7525 40.5801 16.5362
v  18.0691 40.5703 -7.6290
v  22.7652 54.4862 -18.6708
v  19.5640 65.4252 5.4556
v  20.7596 65.4726 16.4974
v  21.7994 65.4628 -7.6678
v  23.5575 65.5280 -18.7096
v  19.1543 -15.6953 -19.7537
v  8.1125 -15.8677 -17.3131
v  12.4788 15.1221 -19.4987
v  23.5207 27.4874 -22.0570
v  -5.0109 -15.9107 -17.7566
v  -0.6445 15.0791 -19.5805
v  -16.0528 -15.9059 -17.7462
v  -11.6864 15.0840 -17.6735
v  9.6423 40.4383 -18.3711
v  20.6842 40.6107 -20.7521
v  -3.4810 40.3953 -18.2945
v  -14.5229 40.4002 -20.2386
v  9.7189 65.3308 -20.2624
v  20.7607 65.5032 -21.1538
v  -3.4045 65.2878 -19.1290
v  -14.4464 65.2927 -19.7352
v  -18.5740 -15.9349 -15.9662
v  -23.3875 -15.9664 -4.9243
v  -19.0768 15.0234 -4.3690
v  -14.0313 15.0550 -15.4109
v  -22.5128 -15.7856 8.1990
v  -18.9156 15.2042 8.7544
v  -22.5334 -15.7164 19.2409
v  -22.6767 15.2735 19.7962
v  -21.3009 40.3396 -7.3517
v  -16.6049 40.3712 -18.3936
v  -21.4519 40.5204 5.7716
v  -17.6176 40.5897 16.8135
v  -17.5707 65.2321 -6.5628
v  -15.8125 65.2637 -17.6046
v  -19.8061 65.4129 6.5606
v  -18.6104 65.4822 17.6024
# 96 vertices

vn -0.2847 -0.9023 0.3238
vn -0.4649 -0.8843 0.0425
vn -0.0053 -1.0000 0.0071
vn -0.0202 -0.9039 0.4274
vn 0.0062 -1.0000 0.0029
vn 0.0427 -0.9092 0.4142
vn 0.3256 -0.9452 -0.0232
vn 0.4789 -0.8230 0.3054
vn -0.4364 -0.8959 -0.0836
vn 0.0032 -1.0000 -0.0006
vn 0.0048 -1.0000 -0.0021
vn 0.3369 -0.9404 0.0457
vn -0.3154 -0.8248 -0.4693
vn 0.0166 -0.9393 -0.3427
vn -0.0159 -0.9346 -0.3554
vn 0.3035 -0.9184 -0.2539
vn -0.5211 0.7225 0.4544
vn 0.0165 0.9103 0.4136
vn 0.0050 1.0000 -0.0064
vn -0.4588 0.8875 -0.0430
vn 0.0311 0.9351 0.3530
vn -0.0059 1.0000 -0.0037
vn 0.2339 0.9105 0.3411
vn 0.2995 0.9537 0.0256
vn -0.0020 1.0000 0.0011
vn -0.3412 0.9380 -0.0607
vn -0.0063 1.0000 0.0018
vn 0.4063 0.9110 0.0709
vn -0.0199 0.9386 -0.3443
vn -0.3624 0.8874 -0.2851
vn -0.0412 0.9166 -0.3977
vn 0.3092 0.8938 -0.3247
vn -0.3100 -0.3880 0.8679
vn -0.0168 -0.3217 0.9467
vn 0.0894 -0.0057 0.9960
vn -0.3519 0.0791 0.9327
vn 0.0851 -0.3319 0.9395
vn 0.1013 0.0043 0.9948
vn 0.5235 -0.2611 0.8110
vn 0.4511 -0.0331 0.8919
vn -0.0758 -0.0027 0.9971
vn -0.4218 0.0725 0.9038
vn 0.1179 0.0043 0.9930
vn 0.5502 -0.0610 0.8328
vn 0.0213 0.3702 0.9287
vn -0.3590 0.1944 0.9129
vn 0.0740 0.4369 0.8964
vn 0.3364 0.3820 0.8608
vn 0.9338 -0.2457 0.2600
vn 0.8743 -0.4847 -0.0280
vn 0.9923 -0.0371 0.1179
vn 0.8332 -0.0782 0.5474
vn 0.8807 -0.4438 0.1654
vn 0.9647 0.0523 0.2582
vn 0.8942 -0.4274 -0.1334
vn 0.9851 -0.0039 -0.1721
vn 0.9865 0.0212 -0.1623
vn 0.9834 -0.0785 0.1636
vn 0.9759 0.0270 0.2165
vn 0.9958 -0.0497 -0.0763
vn 0.9081 0.4179 0.0269
vn 0.8325 0.4427 0.3329
vn 0.9444 0.2892 0.1568
vn 0.8918 0.3445 -0.2934
vn 0.2726 -0.4122 -0.8694
vn -0.0845 -0.4200 -0.9036
vn -0.1030 -0.0215 -0.9944
vn 0.3169 0.0475 -0.9473
vn 0.0156 -0.4418 -0.8970
vn -0.0750 -0.0031 -0.9972
vn -0.2733 -0.2669 -0.9242
vn -0.4366 -0.0395 -0.8988
vn -0.1045 -0.0208 -0.9943
vn -0.0277 0.0675 -0.9973
vn 0.0871 0.0135 -0.9961
vn -0.2808 -0.0529 -0.9583
vn -0.0816 0.3336 -0.9392
vn 0.2688 0.3540 -0.8958
vn -0.0137 0.3979 -0.9173
vn -0.4007 0.3986 -0.8250
vn -0.7788 -0.2100 -0.5910
vn -0.9467 -0.2818 -0.1558
vn -0.9795 0.0161 -0.2009
vn -0.8150 -0.0104 -0.5793
vn -0.9660 -0.2562 0.0342
vn -0.9867 -0.0007 -0.1626
vn -0.8473 -0.3961 0.3539
vn -0.9713 0.1018 0.2151
vn -0.9772 0.0196 -0.2113
vn -0.8086 -0.0526 -0.5860
vn -0.9884 -0.0103 0.1516
vn -0.8307 0.0895 0.5494
vn -0.8660 0.4785 -0.1451
vn -0.8786 0.3449 -0.3304
vn -0.9363 0.3493 -0.0372
vn -0.9140 0.1061 0.3917
# 96 vertex normals

vt 0.9762 0.1072 0.0000
vt 0.9522 0.1072 0.0000
vt 0.9522 0.0844 0.0000
vt 0.9762 0.0844 0.0000
vt 0.9522 0.0541 0.0000
vt 0.9762 0.0541 0.0000
vt 0.9522 0.0289 0.0000
vt 0.9762 0.0289 0.0000
vt 0.9231 0.1072 0.0000
vt 0.9231 0.0844 0.0000
vt 0.9231 0.0541 0.0000
vt 0.9231 0.0289 0.0000
vt 0.8994 0.1072 0.0000
vt 0.8994 0.0844 0.0000
vt 0.8994 0.0541 0.0000
vt 0.8994 0.0289 0.0000
vt 0.9762 0.1929 0.0000
vt 0.9762 0.2156 0.0000
vt 0.9522 0.2156 0.0000
vt 0.9522 0.1929 0.0000
vt 0.9762 0.2458 0.0000
vt 0.9522 0.2458 0.0000
vt 0.9762 0.2708 0.0000
vt 0.9522 0.2708 0.0000
vt 0.9231 0.2156 0.0000
vt 0.9231 0.1929 0.0000
vt 0.9231 0.2458 0.0000
vt 0.9231 0.2708 0.0000
vt 0.8994 0.2156 0.0000
vt 0.8994 0.1929 0.0000
vt 0.8994 0.2458 0.0000
vt 0.8994 0.2708 0.0000
vt 0.6390 0.1086 0.0000
vt 0.6647 0.1086 0.0000
vt 0.6647 0.1340 0.0000
vt 0.6390 0.1340 0.0000
vt 0.6953 0.1086 0.0000
vt 0.6953 0.1340 0.0000
vt 0.7210 0.1086 0.0000
vt 0.7210 0.1340 0.0000
vt 0.6647 0.1644 0.0000
vt 0.6390 0.1644 0.0000
vt 0.6953 0.1644 0.0000
vt 0.7210 0.1644 0.0000
vt 0.6647 0.1899 0.0000
vt 0.6390 0.1899 0.0000
vt 0.6953 0.1899 0.0000
vt 0.7210 0.1899 0.0000
vt 0.7278 0.1086 0.0000
vt 0.7535 0.1086 0.0000
vt 0.7535 0.1340 0.0000
vt 0.7278 0.1340 0.0000
vt 0.7840 0.1086 0.0000
vt 0.7840 0.1340 0.0000
vt 0.8097 0.1086 0.0000
vt 0.8097 0.1340 0.0000
vt 0.7535 0.1644 0.0000
vt 0.7278 0.1644 0.0000
vt 0.7840 0.1644 0.0000
vt 0.8097 0.1644 0.0000
vt 0.7535 0.1899 0.0000
vt 0.7278 0.1899 0.0000
vt 0.7840 0.1899 0.0000
vt 0.8097 0.1899 0.0000
vt 0.8165 0.1086 0.0000
vt 0.8421 0.1086 0.0000
vt 0.8421 0.1340 0.0000
vt 0.8165 0.1340 0.0000
vt 0.8723 0.1086 0.0000
vt 0.8723 0.1340 0.0000
vt 0.8930 0.1086 0.0000
vt 0.8930 0.1357 0.0000
vt 0.8421 0.1644 0.0000
vt 0.8165 0.1644 0.0000
vt 0.8723 0.1644 0.0000
vt 0.8930 0.1645 0.0000
vt 0.8421 0.1899 0.0000
vt 0.8165 0.1899 0.0000
vt 0.8723 0.1899 0.0000
vt 0.8930 0.1899 0.0000
vt 0.8994 0.1130 0.0000
vt 0.9231 0.1130 0.0000
vt 0.9231 0.1357 0.0000
vt 0.8994 0.1357 0.0000
vt 0.9522 0.1130 0.0000
vt 0.9522 0.1357 0.0000
vt 0.9762 0.1130 0.0000
vt 0.9762 0.1357 0.0000
vt 0.9231 0.1645 0.0000
vt 0.8994 0.1645 0.0000
vt 0.9522 0.1645 0.0000
vt 0.9762 0.1645 0.0000
vt 0.9231 0.1871 0.0000
vt 0.8994 0.1871 0.0000
vt 0.9522 0.1871 0.0000
vt 0.9762 0.1871 0.0000
vt 0.9832 0.1098 0.0000
vt 0.9762 0.0221 0.0000
vt 0.9832 0.0270 0.0000
vt 0.8930 0.0302 0.0000
vt 0.8994 0.0221 0.0000
vt 0.9832 0.1914 0.0000
vt 0.9832 0.2735 0.0000
vt 0.9762 0.2775 0.0000
vt 0.8994 0.2775 0.0000
vt 0.8930 0.2688 0.0000
vt 0.9832 0.0844 0.0000
vt 0.9832 0.0541 0.0000
vt 0.9522 0.0221 0.0000
vt 0.9231 0.0221 0.0000
vt 0.8930 0.0844 0.0000
vt 0.8930 0.0541 0.0000
vt 0.9832 0.2156 0.0000
vt 0.9832 0.2458 0.0000
vt 0.9522 0.2775 0.0000
vt 0.9231 0.2775 0.0000
vt 0.8930 0.2156 0.0000
vt 0.8930 0.2458 0.0000
vt 0.9832 0.1357 0.0000
vt 0.9832 0.1645 0.0000
# 120 texture coords

o Object009
g Object009
s 1
f 1/1/1 2/2/2 3/3/3 4/4/4 
f 4/4/4 3/3/3 5/5/5 6/6/6 
f 6/6/6 5/5/5 7/7/7 8/8/8 
f 2/2/2 9/9/9 10/10/10 3/3/3 
f 3/3/3 10/10/10 11/11/11 5/5/5 
f 5/5/5 11/11/11 12/12/12 7/7/7 
f 9/9/9 13/13/13 14/14/14 10/10/10 
f 10/10/10 14/14/14 15/15/15 11/11/11 
f 11/11/11 15/15/15 16/16/16 12/12/12 
f 17/17/17 18/18/18 19/19/19 20/20/20 
f 18/18/18 21/21/21 22/22/22 19/19/19 
f 21/21/21 23/23/23 24/24/24 22/22/22 
f 20/20/20 19/19/19 25/25/25 26/26/26 
f 19/19/19 22/22/22 27/27/27 25/25/25 
f 22/22/22 24/24/24 28/28/28 27/27/27 
f 26/26/26 25/25/25 29/29/29 30/30/30 
f 25/25/25 27/27/27 31/31/31 29/29/29 
f 27/27/27 28/28/28 32/32/32 31/31/31 
f 33/33/33 34/34/34 35/35/35 36/36/36 
f 34/34/34 37/37/37 38/38/38 35/35/35 
f 37/37/37 39/39/39 40/40/40 38/38/38 
f 36/36/36 35/35/35 41/41/41 42/42/42 
f 35/35/35 38/38/38 43/43/43 41/41/41 
f 38/38/38 40/40/40 44/44/44 43/43/43 
f 42/42/42 41/41/41 45/45/45 46/46/46 
f 41/41/41 43/43/43 47/47/47 45/45/45 
f 43/43/43 44/44/44 48/48/48 47/47/47 
f 49/49/49 50/50/50 51/51/51 52/52/52 
f 50/50/50 53/53/53 54/54/54 51/51/51 
f 53/53/53 55/55/55 56/56/56 54/54/54 
f 52/52/52 51/51/51 57/57/57 58/58/58 
f 51/51/51 54/54/54 59/59/59 57/57/57 
f 54/54/54 56/56/56 60/60/60 59/59/59 
f 58/58/58 57/57/57 61/61/61 62/62/62 
f 57/57/57 59/59/59 63/63/63 61/61/61 
f 59/59/59 60/60/60 64/64/64 63/63/63 
f 65/65/65 66/66/66 67/67/67 68/68/68 
f 66/66/66 69/69/69 70/70/70 67/67/67 
f 69/69/69 71/71/71 72/72/72 70/70/70 
f 68/68/68 67/67/67 73/73/73 74/74/74 
f 67/67/67 70/70/70 75/75/75 73/73/73 
f 70/70/70 72/72/72 76/76/76 75/75/75 
f 74/74/74 73/73/73 77/77/77 78/78/78 
f 73/73/73 75/75/75 79/79/79 77/77/77 
f 75/75/75 76/76/76 80/80/80 79/79/79 
f 81/81/81 82/82/82 83/83/83 84/84/84 
f 82/82/82 85/85/85 86/86/86 83/83/83 
f 85/85/85 87/87/87 88/88/88 86/86/86 
f 84/84/84 83/83/83 89/89/89 90/90/90 
f 83/83/83 86/86/86 91/91/91 89/89/89 
f 86/86/86 88/88/88 92/92/92 91/91/91 
f 90/90/90 89/89/89 93/93/93 94/94/94 
f 89/89/89 91/91/91 95/95/95 93/93/93 
f 91/91/91 92/92/92 96/96/96 95/95/95 
f 33/97/33 87/87/87 1/1/1 
f 8/8/8 49/98/49 39/99/39 
f 81/81/81 71/71/71 13/13/13 
f 16/16/16 65/100/65 55/101/55 
f 17/17/17 96/96/96 46/102/46 
f 48/103/48 62/104/62 23/23/23 
f 30/30/30 80/80/80 94/94/94 
f 64/105/64 78/106/78 32/32/32 
f 1/1/1 87/87/87 85/85/85 2/2/2 
f 4/4/4 34/107/34 33/97/33 1/1/1 
f 6/6/6 37/108/37 34/107/34 4/4/4 
f 7/7/7 50/109/50 49/98/49 8/8/8 
f 8/8/8 39/99/39 37/108/37 6/6/6 
f 2/2/2 85/85/85 82/82/82 9/9/9 
f 12/12/12 53/110/53 50/109/50 7/7/7 
f 9/9/9 82/82/82 81/81/81 13/13/13 
f 13/13/13 71/71/71 69/111/69 14/14/14 
f 14/14/14 69/111/69 66/112/66 15/15/15 
f 15/15/15 66/112/66 65/100/65 16/16/16 
f 16/16/16 55/101/55 53/110/53 12/12/12 
f 17/17/17 46/102/46 45/113/45 18/18/18 
f 20/20/20 95/95/95 96/96/96 17/17/17 
f 18/18/18 45/113/45 47/114/47 21/21/21 
f 21/21/21 47/114/47 48/103/48 23/23/23 
f 23/23/23 62/104/62 61/115/61 24/24/24 
f 26/26/26 93/93/93 95/95/95 20/20/20 
f 24/24/24 61/115/61 63/116/63 28/28/28 
f 29/29/29 79/117/79 80/80/80 30/30/30 
f 30/30/30 94/94/94 93/93/93 26/26/26 
f 31/31/31 77/118/77 79/117/79 29/29/29 
f 28/28/28 63/116/63 64/105/64 32/32/32 
f 32/32/32 78/106/78 77/118/77 31/31/31 
f 36/119/36 88/88/88 87/87/87 33/97/33 
f 39/39/39 49/49/49 52/52/52 40/40/40 
f 42/120/42 92/92/92 88/88/88 36/119/36 
f 40/40/40 52/52/52 58/58/58 44/44/44 
f 46/102/46 96/96/96 92/92/92 42/120/42 
f 44/44/44 58/58/58 62/62/62 48/48/48 
f 55/55/55 65/65/65 68/68/68 56/56/56 
f 56/56/56 68/68/68 74/74/74 60/60/60 
f 60/60/60 74/74/74 78/78/78 64/64/64 
f 71/71/71 81/81/81 84/84/84 72/72/72 
f 72/72/72 84/84/84 90/90/90 76/76/76 
f 76/76/76 90/90/90 94/94/94 80/80/80 
# 90 polygons - 8 triangles

