# 3ds Max Wavefront OBJ Exporter v0.97b - (c)2007 guruware
# File Created: 07.08.2019 15:47:02

#
# object Object006
#

v  -15.7679 -20.0819 16.9583
v  -15.9072 -19.2576 5.9164
v  -4.8654 -19.5595 5.9654
v  -4.7261 -20.1800 17.0073
v  8.2580 -20.0896 6.5006
v  8.3973 -19.5504 17.5425
v  19.2999 -21.4274 7.6635
v  19.4392 -20.0015 18.7053
v  -17.4299 -18.7600 -7.2069
v  -6.3880 -18.3532 -7.1580
v  6.7353 -18.9631 -6.6227
v  17.7772 -20.9727 -5.4599
v  -20.7380 -19.7401 -18.2488
v  -9.6961 -18.4235 -18.1998
v  3.4272 -17.9427 -17.6646
v  14.4691 -19.7254 -16.5017
v  -18.5636 19.2882 17.9410
v  -7.5218 19.1901 18.2575
v  -8.4221 19.8106 7.2156
v  -19.4639 20.1124 6.8992
v  5.6016 19.8197 18.1869
v  4.7013 19.2805 7.1450
v  16.6435 19.3686 18.3373
v  15.7432 17.9427 7.2955
v  -8.2212 21.0168 -5.9077
v  -19.2631 20.6101 -6.2242
v  4.9021 20.4069 -5.9783
v  15.9440 18.3974 -5.8279
v  -8.6493 20.9466 -16.9496
v  -19.6911 19.6300 -17.2661
v  4.4741 21.4274 -17.0202
v  15.5159 19.6447 -16.8697
v  -15.5157 -18.0063 18.9974
v  -4.4738 -18.0197 18.9625
v  -5.5237 -6.9778 18.6625
v  -16.5655 -6.9644 19.3040
v  8.6495 -17.2147 19.4888
v  7.5997 -6.1728 18.6558
v  19.6914 -17.5766 20.7143
v  18.6415 -6.5348 19.9074
v  -7.9197 6.1455 19.4004
v  -18.9615 6.1590 20.1617
v  5.2037 6.9505 18.9057
v  16.2455 6.5886 19.7725
v  -7.3989 17.1874 20.2141
v  -18.4407 17.2008 20.0873
v  5.7245 17.9924 20.0727
v  16.7663 17.6305 20.3532
v  21.6413 -18.2054 18.8794
v  21.7406 -19.6763 7.8375
v  22.5940 -8.6345 7.0610
v  20.7689 -7.1635 18.1028
v  20.2434 -19.2969 -5.2858
v  22.6132 -8.2551 -6.0624
v  16.7569 -18.0784 -16.3277
v  19.0524 -7.0366 -17.1042
v  20.4948 4.4889 6.8963
v  18.3290 5.9598 17.9382
v  21.9021 4.8683 -6.2271
v  19.4363 6.0868 -17.2689
v  18.1800 15.5307 7.3561
v  18.5406 17.0017 18.3980
v  18.5822 15.9102 -5.7672
v  17.7842 17.1286 -16.8091
v  13.9739 -17.5760 -18.6558
v  2.9321 -15.8771 -19.8813
v  5.1412 -4.8353 -20.7143
v  16.1831 -6.5342 -19.4627
v  -10.1913 -16.5293 -20.4076
v  -7.9821 -5.4875 -20.7076
v  -21.2331 -17.9328 -20.3727
v  -19.0240 -6.8909 -20.0660
v  5.6097 8.2881 -20.4644
v  16.6516 6.5892 -19.5976
v  -7.5136 7.6359 -19.9697
v  -18.5555 6.2324 -19.2084
v  4.3016 19.3300 -19.2974
v  15.3435 17.6310 -19.0169
v  -8.8218 18.6777 -19.1560
v  -19.8636 17.2743 -19.2827
v  -22.6132 -17.7012 -18.3374
v  -19.1266 -16.6517 -7.2956
v  -16.7569 -5.6098 -6.9266
v  -20.3176 -6.6593 -17.9684
v  -17.6295 -17.0188 5.8278
v  -16.7761 -5.9769 6.1968
v  -17.7287 -17.7841 16.8696
v  -18.6011 -6.7423 17.2387
v  -17.4680 7.5135 -6.0843
v  -19.9337 6.4640 -17.1262
v  -18.8753 7.1464 7.0390
v  -21.0411 6.3811 18.0809
v  -20.7879 18.5554 -6.2674
v  -21.5859 17.5059 -17.3093
v  -21.1901 18.1883 6.8560
v  -20.8295 17.4229 17.8978
# 96 vertices

vn -0.3824 -0.8664 0.3211
vn -0.4449 -0.8953 -0.0234
vn -0.0323 -0.9969 -0.0719
vn 0.0098 -0.9278 0.3729
vn -0.0807 -0.9966 -0.0146
vn -0.0282 -0.8948 0.4455
vn 0.2521 -0.9673 0.0287
vn 0.2408 -0.8620 0.4460
vn -0.3980 -0.9115 0.1038
vn -0.0065 -0.9992 -0.0400
vn -0.1123 -0.9916 -0.0637
vn 0.2266 -0.9665 -0.1208
vn -0.3384 -0.9196 -0.1996
vn 0.0837 -0.9263 -0.3674
vn -0.0196 -0.9086 -0.4172
vn 0.1986 -0.8819 -0.4275
vn -0.2965 0.8731 0.3870
vn -0.0233 0.9069 0.4206
vn 0.0327 0.9968 0.0725
vn -0.4043 0.9124 0.0642
vn -0.0038 0.9378 0.3471
vn 0.0792 0.9967 0.0162
vn 0.4116 0.8818 0.2300
vn 0.4339 0.8991 -0.0573
vn 0.0050 0.9991 0.0430
vn -0.4526 0.8915 -0.0180
vn 0.1134 0.9897 0.0869
vn 0.4564 0.8877 0.0600
vn -0.0674 0.9217 -0.3820
vn -0.4037 0.8252 -0.3951
vn 0.0586 0.9467 -0.3169
vn 0.4348 0.8522 -0.2910
vn -0.3215 -0.3621 0.8749
vn -0.0068 -0.3562 0.9344
vn 0.0290 -0.0097 0.9995
vn -0.3524 -0.0908 0.9314
vn -0.0713 -0.2980 0.9519
vn -0.0584 0.0183 0.9981
vn 0.2886 -0.2477 0.9248
vn 0.3148 0.0859 0.9453
vn 0.0560 -0.0606 0.9966
vn -0.3748 -0.0555 0.9254
vn -0.0152 -0.0642 0.9978
vn 0.2933 -0.0086 0.9560
vn -0.0101 0.3343 0.9424
vn -0.3127 0.3538 0.8815
vn -0.0120 0.3539 0.9352
vn 0.3813 0.3516 0.8550
vn 0.8506 -0.3340 0.4061
vn 0.8649 -0.5017 -0.0143
vn 0.9962 0.0380 0.0785
vn 0.8774 0.1357 0.4601
vn 0.8126 -0.5468 -0.2017
vn 0.9833 -0.0862 -0.1606
vn 0.7189 -0.4669 -0.5149
vn 0.8160 -0.1175 -0.5659
vn 0.9745 0.1770 0.1381
vn 0.8681 0.0682 0.4917
vn 0.9848 0.1674 -0.0466
vn 0.8582 0.0576 -0.5101
vn 0.8829 0.4688 -0.0262
vn 0.9155 0.2853 0.2838
vn 0.8557 0.5172 0.0180
vn 0.8502 0.3949 -0.3482
vn 0.2683 -0.4173 -0.8683
vn 0.0492 -0.4157 -0.9082
vn 0.0564 -0.0312 -0.9979
vn 0.3880 -0.0819 -0.9180
vn 0.0519 -0.4142 -0.9087
vn -0.0297 0.0183 -0.9994
vn -0.4383 -0.3491 -0.8282
vn -0.4865 0.0976 -0.8682
vn 0.0274 0.0665 -0.9974
vn 0.3924 0.0374 -0.9190
vn -0.0577 0.0624 -0.9964
vn -0.4933 0.0106 -0.8698
vn 0.0281 0.4644 -0.8852
vn 0.3580 0.3769 -0.8543
vn -0.0374 0.4185 -0.9074
vn -0.4029 0.2628 -0.8767
vn -0.9639 -0.2378 -0.1195
vn -0.9516 -0.2165 0.2183
vn -0.9861 0.0646 0.1530
vn -0.9826 0.1259 -0.1365
vn -0.9576 -0.2855 0.0382
vn -0.9958 -0.0377 -0.0829
vn -0.8783 -0.3518 0.3239
vn -0.9464 -0.1415 0.2905
vn -0.9829 -0.1752 0.0563
vn -0.9837 -0.0566 -0.1705
vn -0.9718 -0.1760 -0.1567
vn -0.9540 -0.0822 0.2882
vn -0.9812 0.1924 0.0137
vn -0.9195 0.2477 -0.3052
vn -0.9650 0.2620 0.0133
vn -0.8418 0.3796 0.3837
# 96 vertex normals

vt 0.9762 0.1072 0.0000
vt 0.9522 0.1072 0.0000
vt 0.9522 0.0844 0.0000
vt 0.9762 0.0844 0.0000
vt 0.9522 0.0540 0.0000
vt 0.9762 0.0540 0.0000
vt 0.9522 0.0288 0.0000
vt 0.9762 0.0288 0.0000
vt 0.9231 0.1072 0.0000
vt 0.9231 0.0844 0.0000
vt 0.9231 0.0540 0.0000
vt 0.9231 0.0288 0.0000
vt 0.8994 0.1072 0.0000
vt 0.8994 0.0844 0.0000
vt 0.8994 0.0540 0.0000
vt 0.8994 0.0288 0.0000
vt 0.9762 0.1929 0.0000
vt 0.9762 0.2156 0.0000
vt 0.9522 0.2156 0.0000
vt 0.9522 0.1929 0.0000
vt 0.9762 0.2458 0.0000
vt 0.9522 0.2458 0.0000
vt 0.9762 0.2708 0.0000
vt 0.9522 0.2708 0.0000
vt 0.9231 0.2156 0.0000
vt 0.9231 0.1929 0.0000
vt 0.9231 0.2458 0.0000
vt 0.9231 0.2708 0.0000
vt 0.8994 0.2156 0.0000
vt 0.8994 0.1929 0.0000
vt 0.8994 0.2458 0.0000
vt 0.8994 0.2708 0.0000
vt 0.6390 0.1086 0.0000
vt 0.6647 0.1086 0.0000
vt 0.6647 0.1339 0.0000
vt 0.6390 0.1339 0.0000
vt 0.6953 0.1086 0.0000
vt 0.6953 0.1339 0.0000
vt 0.7210 0.1086 0.0000
vt 0.7210 0.1339 0.0000
vt 0.6647 0.1643 0.0000
vt 0.6390 0.1643 0.0000
vt 0.6953 0.1643 0.0000
vt 0.7210 0.1643 0.0000
vt 0.6647 0.1898 0.0000
vt 0.6390 0.1898 0.0000
vt 0.6953 0.1898 0.0000
vt 0.7210 0.1898 0.0000
vt 0.7278 0.1086 0.0000
vt 0.7535 0.1086 0.0000
vt 0.7535 0.1339 0.0000
vt 0.7278 0.1339 0.0000
vt 0.7840 0.1086 0.0000
vt 0.7840 0.1339 0.0000
vt 0.8097 0.1086 0.0000
vt 0.8097 0.1339 0.0000
vt 0.7535 0.1643 0.0000
vt 0.7278 0.1643 0.0000
vt 0.7840 0.1643 0.0000
vt 0.8097 0.1643 0.0000
vt 0.7535 0.1898 0.0000
vt 0.7278 0.1898 0.0000
vt 0.7840 0.1898 0.0000
vt 0.8097 0.1898 0.0000
vt 0.8165 0.1086 0.0000
vt 0.8421 0.1086 0.0000
vt 0.8421 0.1339 0.0000
vt 0.8165 0.1339 0.0000
vt 0.8723 0.1086 0.0000
vt 0.8723 0.1339 0.0000
vt 0.8930 0.1086 0.0000
vt 0.8930 0.1356 0.0000
vt 0.8421 0.1643 0.0000
vt 0.8165 0.1643 0.0000
vt 0.8723 0.1643 0.0000
vt 0.8930 0.1644 0.0000
vt 0.8421 0.1898 0.0000
vt 0.8165 0.1898 0.0000
vt 0.8723 0.1898 0.0000
vt 0.8930 0.1898 0.0000
vt 0.8994 0.1130 0.0000
vt 0.9231 0.1130 0.0000
vt 0.9231 0.1356 0.0000
vt 0.8994 0.1356 0.0000
vt 0.9522 0.1130 0.0000
vt 0.9522 0.1356 0.0000
vt 0.9762 0.1130 0.0000
vt 0.9762 0.1356 0.0000
vt 0.9231 0.1644 0.0000
vt 0.8994 0.1644 0.0000
vt 0.9522 0.1644 0.0000
vt 0.9762 0.1644 0.0000
vt 0.9231 0.1871 0.0000
vt 0.8994 0.1871 0.0000
vt 0.9522 0.1871 0.0000
vt 0.9762 0.1871 0.0000
vt 0.9832 0.1097 0.0000
vt 0.9762 0.0221 0.0000
vt 0.9832 0.0270 0.0000
vt 0.8930 0.0301 0.0000
vt 0.8994 0.0221 0.0000
vt 0.9832 0.1913 0.0000
vt 0.9832 0.2734 0.0000
vt 0.9762 0.2775 0.0000
vt 0.8994 0.2775 0.0000
vt 0.8930 0.2687 0.0000
vt 0.9832 0.0844 0.0000
vt 0.9832 0.0540 0.0000
vt 0.9522 0.0221 0.0000
vt 0.9231 0.0221 0.0000
vt 0.8930 0.0844 0.0000
vt 0.8930 0.0540 0.0000
vt 0.9832 0.2156 0.0000
vt 0.9832 0.2458 0.0000
vt 0.9522 0.2775 0.0000
vt 0.9231 0.2775 0.0000
vt 0.8930 0.2156 0.0000
vt 0.8930 0.2458 0.0000
vt 0.9832 0.1356 0.0000
vt 0.9832 0.1644 0.0000
# 120 texture coords

o Object006
g Object006
s 1
f 1/1/1 2/2/2 3/3/3 4/4/4 
f 4/4/4 3/3/3 5/5/5 6/6/6 
f 6/6/6 5/5/5 7/7/7 8/8/8 
f 2/2/2 9/9/9 10/10/10 3/3/3 
f 3/3/3 10/10/10 11/11/11 5/5/5 
f 5/5/5 11/11/11 12/12/12 7/7/7 
f 9/9/9 13/13/13 14/14/14 10/10/10 
f 10/10/10 14/14/14 15/15/15 11/11/11 
f 11/11/11 15/15/15 16/16/16 12/12/12 
f 17/17/17 18/18/18 19/19/19 20/20/20 
f 18/18/18 21/21/21 22/22/22 19/19/19 
f 21/21/21 23/23/23 24/24/24 22/22/22 
f 20/20/20 19/19/19 25/25/25 26/26/26 
f 19/19/19 22/22/22 27/27/27 25/25/25 
f 22/22/22 24/24/24 28/28/28 27/27/27 
f 26/26/26 25/25/25 29/29/29 30/30/30 
f 25/25/25 27/27/27 31/31/31 29/29/29 
f 27/27/27 28/28/28 32/32/32 31/31/31 
f 33/33/33 34/34/34 35/35/35 36/36/36 
f 34/34/34 37/37/37 38/38/38 35/35/35 
f 37/37/37 39/39/39 40/40/40 38/38/38 
f 36/36/36 35/35/35 41/41/41 42/42/42 
f 35/35/35 38/38/38 43/43/43 41/41/41 
f 38/38/38 40/40/40 44/44/44 43/43/43 
f 42/42/42 41/41/41 45/45/45 46/46/46 
f 41/41/41 43/43/43 47/47/47 45/45/45 
f 43/43/43 44/44/44 48/48/48 47/47/47 
f 49/49/49 50/50/50 51/51/51 52/52/52 
f 50/50/50 53/53/53 54/54/54 51/51/51 
f 53/53/53 55/55/55 56/56/56 54/54/54 
f 52/52/52 51/51/51 57/57/57 58/58/58 
f 51/51/51 54/54/54 59/59/59 57/57/57 
f 54/54/54 56/56/56 60/60/60 59/59/59 
f 58/58/58 57/57/57 61/61/61 62/62/62 
f 57/57/57 59/59/59 63/63/63 61/61/61 
f 59/59/59 60/60/60 64/64/64 63/63/63 
f 65/65/65 66/66/66 67/67/67 68/68/68 
f 66/66/66 69/69/69 70/70/70 67/67/67 
f 69/69/69 71/71/71 72/72/72 70/70/70 
f 68/68/68 67/67/67 73/73/73 74/74/74 
f 67/67/67 70/70/70 75/75/75 73/73/73 
f 70/70/70 72/72/72 76/76/76 75/75/75 
f 74/74/74 73/73/73 77/77/77 78/78/78 
f 73/73/73 75/75/75 79/79/79 77/77/77 
f 75/75/75 76/76/76 80/80/80 79/79/79 
f 81/81/81 82/82/82 83/83/83 84/84/84 
f 82/82/82 85/85/85 86/86/86 83/83/83 
f 85/85/85 87/87/87 88/88/88 86/86/86 
f 84/84/84 83/83/83 89/89/89 90/90/90 
f 83/83/83 86/86/86 91/91/91 89/89/89 
f 86/86/86 88/88/88 92/92/92 91/91/91 
f 90/90/90 89/89/89 93/93/93 94/94/94 
f 89/89/89 91/91/91 95/95/95 93/93/93 
f 91/91/91 92/92/92 96/96/96 95/95/95 
f 33/97/33 87/87/87 1/1/1 
f 8/8/8 49/98/49 39/99/39 
f 81/81/81 71/71/71 13/13/13 
f 16/16/16 65/100/65 55/101/55 
f 17/17/17 96/96/96 46/102/46 
f 48/103/48 62/104/62 23/23/23 
f 30/30/30 80/80/80 94/94/94 
f 64/105/64 78/106/78 32/32/32 
f 1/1/1 87/87/87 85/85/85 2/2/2 
f 4/4/4 34/107/34 33/97/33 1/1/1 
f 6/6/6 37/108/37 34/107/34 4/4/4 
f 7/7/7 50/109/50 49/98/49 8/8/8 
f 8/8/8 39/99/39 37/108/37 6/6/6 
f 2/2/2 85/85/85 82/82/82 9/9/9 
f 12/12/12 53/110/53 50/109/50 7/7/7 
f 9/9/9 82/82/82 81/81/81 13/13/13 
f 13/13/13 71/71/71 69/111/69 14/14/14 
f 14/14/14 69/111/69 66/112/66 15/15/15 
f 15/15/15 66/112/66 65/100/65 16/16/16 
f 16/16/16 55/101/55 53/110/53 12/12/12 
f 17/17/17 46/102/46 45/113/45 18/18/18 
f 20/20/20 95/95/95 96/96/96 17/17/17 
f 18/18/18 45/113/45 47/114/47 21/21/21 
f 21/21/21 47/114/47 48/103/48 23/23/23 
f 23/23/23 62/104/62 61/115/61 24/24/24 
f 26/26/26 93/93/93 95/95/95 20/20/20 
f 24/24/24 61/115/61 63/116/63 28/28/28 
f 29/29/29 79/117/79 80/80/80 30/30/30 
f 30/30/30 94/94/94 93/93/93 26/26/26 
f 31/31/31 77/118/77 79/117/79 29/29/29 
f 28/28/28 63/116/63 64/105/64 32/32/32 
f 32/32/32 78/106/78 77/118/77 31/31/31 
f 36/119/36 88/88/88 87/87/87 33/97/33 
f 39/39/39 49/49/49 52/52/52 40/40/40 
f 42/120/42 92/92/92 88/88/88 36/119/36 
f 40/40/40 52/52/52 58/58/58 44/44/44 
f 46/102/46 96/96/96 92/92/92 42/120/42 
f 44/44/44 58/58/58 62/62/62 48/48/48 
f 55/55/55 65/65/65 68/68/68 56/56/56 
f 56/56/56 68/68/68 74/74/74 60/60/60 
f 60/60/60 74/74/74 78/78/78 64/64/64 
f 71/71/71 81/81/81 84/84/84 72/72/72 
f 72/72/72 84/84/84 90/90/90 76/76/76 
f 76/76/76 90/90/90 94/94/94 80/80/80 
# 90 polygons - 8 triangles

