# 3ds Max Wavefront OBJ Exporter v0.97b - (c)2007 guruware
# File Created: 07.08.2019 15:47:13

#
# object Object004
#

v  -18.4102 -19.5617 17.7774
v  -17.5974 -19.7953 6.7355
v  -6.5555 -19.5592 6.5604
v  -7.3684 -19.1650 17.6022
v  6.5678 -19.4788 6.5252
v  5.7550 -19.7347 17.5671
v  17.6097 -20.2051 6.8302
v  16.7968 -19.9288 17.8721
v  -17.4343 -20.0089 -6.3878
v  -6.3925 -19.6318 -6.5630
v  6.7309 -19.8356 -6.5981
v  17.7727 -19.5251 -6.2931
v  -18.8499 -20.0068 -17.4297
v  -7.8080 -19.5999 -17.6049
v  5.3153 -19.6451 -17.6400
v  16.3572 -19.5367 -17.3350
v  -15.3683 19.8084 17.1219
v  -4.3265 20.2051 17.5039
v  -6.0995 19.8109 6.4621
v  -17.1413 19.5748 6.0800
v  8.7969 19.6354 17.5096
v  7.0239 19.8913 6.4678
v  19.8387 19.4413 18.0847
v  18.0657 19.1650 7.0428
v  -6.1259 19.7382 -6.6613
v  -17.1678 19.3612 -7.0433
v  6.9974 19.5345 -6.6556
v  18.0393 19.8450 -6.0806
v  -8.7945 19.7702 -17.7031
v  -19.8363 19.3633 -18.0852
v  4.3289 19.7250 -17.6974
v  15.3707 19.8333 -17.1224
v  -17.7487 -17.4594 19.9032
v  -6.7068 -17.1211 19.6739
v  -8.6376 -6.0792 19.4101
v  -19.6794 -6.4176 20.0886
v  6.4165 -17.7478 19.7253
v  4.4858 -6.7059 19.6397
v  17.4584 -17.7294 19.7870
v  15.5276 -6.6876 19.2213
v  -6.5574 7.0442 19.7586
v  -17.5993 6.7058 19.5916
v  6.5659 6.4175 19.5057
v  17.6078 6.4358 19.9809
v  -5.0629 18.0860 19.6041
v  -16.1048 17.7477 19.2800
v  8.0604 17.4593 19.5589
v  19.1023 17.4776 20.1488
v  18.6726 -17.7974 17.7714
v  19.7369 -18.1723 6.7296
v  20.9609 -7.1305 6.1237
v  17.8120 -6.7555 17.1656
v  19.4981 -17.4744 -6.3938
v  19.8954 -6.4325 -6.9996
v  19.2121 -17.4664 -17.4356
v  21.8373 -6.4245 -18.0415
v  19.3436 5.9929 6.8493
v  20.1185 6.3678 17.8912
v  20.5172 6.6909 -6.2741
v  18.3121 6.6989 -17.3159
v  20.0605 17.0347 7.0571
v  21.5647 17.4097 18.0990
v  20.2704 17.7327 -6.0662
v  17.5327 17.7407 -17.1081
v  16.8243 -17.5714 -19.5831
v  5.7824 -17.5460 -19.6448
v  8.5940 -6.5041 -19.7304
v  19.6359 -6.5295 -20.1488
v  -7.3409 -17.5738 -19.6962
v  -4.5293 -6.5319 -19.9600
v  -18.3828 -17.8566 -19.4669
v  -15.5712 -6.8148 -19.2814
v  5.2269 6.6192 -19.8644
v  16.2687 6.5938 -19.3892
v  -7.8965 6.5915 -19.6115
v  -18.9384 6.3086 -19.7784
v  4.2624 17.6611 -19.8112
v  15.3042 17.6357 -19.2213
v  -8.8610 17.6333 -19.7659
v  -19.9028 17.3504 -20.0901
v  -20.1580 -18.0075 -17.5723
v  -19.8720 -17.8549 -6.5304
v  -19.4747 -6.8130 -6.1144
v  -17.5327 -6.9657 -17.1562
v  -19.6332 -17.6015 6.5930
v  -18.4091 -6.5597 7.0090
v  -20.6974 -17.5776 17.6348
v  -21.5581 -6.5358 18.0508
v  -18.8529 6.3103 -6.5626
v  -21.0580 6.1577 -17.6044
v  -20.0265 6.5637 6.5608
v  -19.2516 6.5876 17.6026
v  -19.0996 17.3522 -6.8846
v  -21.8373 17.1995 -17.9265
v  -19.3096 17.6055 6.2387
v  -17.8054 17.6294 17.2806
# 96 vertices

vn -0.3219 -0.8737 0.3648
vn -0.3825 -0.9240 0.0009
vn 0.0138 -0.9997 0.0211
vn 0.0039 -0.9177 0.3971
vn -0.0304 -0.9995 0.0009
vn -0.0331 -0.9360 0.3505
vn 0.3457 -0.9383 0.0034
vn 0.3273 -0.8652 0.3798
vn -0.3232 -0.9460 0.0251
vn 0.0082 -1.0000 0.0009
vn 0.0072 -1.0000 0.0042
vn 0.4505 -0.8914 -0.0490
vn -0.4380 -0.8400 -0.3204
vn 0.0133 -0.9248 -0.3803
vn 0.0068 -0.9151 -0.4031
vn 0.2636 -0.9092 -0.3224
vn -0.3052 0.8956 0.3236
vn 0.0025 0.9301 0.3674
vn -0.0138 0.9997 -0.0196
vn -0.3840 0.9232 0.0141
vn 0.0146 0.9161 0.4007
vn 0.0282 0.9996 -0.0044
vn 0.4128 0.8547 0.3149
vn 0.4156 0.9093 -0.0215
vn -0.0075 1.0000 -0.0007
vn -0.3812 0.9237 0.0382
vn -0.0080 1.0000 -0.0033
vn 0.3780 0.9255 -0.0248
vn -0.0106 0.9242 -0.3818
vn -0.4002 0.8674 -0.2958
vn 0.0077 0.9270 -0.3750
vn 0.3059 0.8718 -0.3825
vn -0.2353 -0.3717 0.8980
vn 0.0014 -0.3661 0.9306
vn 0.0260 -0.0018 0.9997
vn -0.4080 0.0080 0.9129
vn -0.0124 -0.4020 0.9156
vn 0.0075 0.0089 0.9999
vn 0.4805 -0.2626 0.8368
vn 0.3481 -0.0015 0.9374
vn 0.0020 -0.0061 1.0000
vn -0.4294 0.0926 0.8983
vn -0.0121 0.0046 0.9999
vn 0.3172 -0.0806 0.9449
vn -0.0110 0.3952 0.9185
vn -0.3857 0.4073 0.8279
vn -0.0133 0.3652 0.9308
vn 0.2829 0.3154 0.9058
vn 0.9124 -0.2794 0.2992
vn 0.8952 -0.4446 0.0303
vn 0.9959 0.0029 0.0909
vn 0.8450 -0.0421 0.5331
vn 0.9342 -0.3554 -0.0299
vn 0.9979 -0.0416 0.0498
vn 0.7887 -0.5076 -0.3468
vn 0.9523 0.0152 -0.3049
vn 0.9995 0.0310 0.0087
vn 0.9063 -0.1522 0.3942
vn 0.9986 -0.0099 -0.0525
vn 0.8673 0.1646 -0.4697
vn 0.9411 0.3335 -0.0549
vn 0.9139 0.2489 0.3206
vn 0.9122 0.3997 -0.0900
vn 0.8078 0.3770 -0.4531
vn 0.2942 -0.4445 -0.8461
vn 0.0042 -0.3759 -0.9266
vn -0.0146 -0.0090 -0.9999
vn 0.4017 -0.0000 -0.9158
vn -0.0033 -0.3966 -0.9180
vn -0.0157 0.0013 -0.9999
vn -0.3846 -0.2542 -0.8874
vn -0.3800 -0.0126 -0.9249
vn 0.0103 -0.0012 -0.9999
vn 0.3856 0.0993 -0.9173
vn -0.0013 0.0060 -1.0000
vn -0.3908 -0.0978 -0.9153
vn 0.0219 0.3891 -0.9209
vn 0.3395 0.3515 -0.8725
vn 0.0073 0.3724 -0.9280
vn -0.3737 0.3111 -0.8738
vn -0.9281 -0.1613 -0.3355
vn -0.9182 -0.3952 0.0269
vn -0.9982 0.0416 -0.0442
vn -0.8894 -0.0073 -0.4570
vn -0.9483 -0.3157 -0.0325
vn -0.9949 -0.0064 -0.1008
vn -0.8499 -0.3998 0.3431
vn -0.9717 0.0429 0.2323
vn -0.9985 0.0142 0.0538
vn -0.9469 -0.1651 -0.2759
vn -0.9995 -0.0285 -0.0093
vn -0.9178 0.1532 0.3663
vn -0.9211 0.3761 0.1007
vn -0.9347 0.2851 -0.2125
vn -0.9014 0.4302 0.0489
vn -0.8307 0.4317 0.3514
# 96 vertex normals

vt 0.9762 0.1072 0.0000
vt 0.9522 0.1072 0.0000
vt 0.9522 0.0844 0.0000
vt 0.9762 0.0844 0.0000
vt 0.9522 0.0541 0.0000
vt 0.9762 0.0541 0.0000
vt 0.9522 0.0289 0.0000
vt 0.9762 0.0289 0.0000
vt 0.9231 0.1072 0.0000
vt 0.9231 0.0844 0.0000
vt 0.9231 0.0541 0.0000
vt 0.9231 0.0289 0.0000
vt 0.8994 0.1072 0.0000
vt 0.8994 0.0844 0.0000
vt 0.8994 0.0541 0.0000
vt 0.8994 0.0289 0.0000
vt 0.9762 0.1929 0.0000
vt 0.9762 0.2156 0.0000
vt 0.9522 0.2156 0.0000
vt 0.9522 0.1929 0.0000
vt 0.9762 0.2458 0.0000
vt 0.9522 0.2458 0.0000
vt 0.9762 0.2708 0.0000
vt 0.9522 0.2708 0.0000
vt 0.9231 0.2156 0.0000
vt 0.9231 0.1929 0.0000
vt 0.9231 0.2458 0.0000
vt 0.9231 0.2708 0.0000
vt 0.8994 0.2156 0.0000
vt 0.8994 0.1929 0.0000
vt 0.8994 0.2458 0.0000
vt 0.8994 0.2708 0.0000
vt 0.6390 0.1086 0.0000
vt 0.6647 0.1086 0.0000
vt 0.6647 0.1340 0.0000
vt 0.6390 0.1340 0.0000
vt 0.6953 0.1086 0.0000
vt 0.6953 0.1340 0.0000
vt 0.7210 0.1086 0.0000
vt 0.7210 0.1340 0.0000
vt 0.6647 0.1644 0.0000
vt 0.6390 0.1644 0.0000
vt 0.6953 0.1644 0.0000
vt 0.7210 0.1644 0.0000
vt 0.6647 0.1899 0.0000
vt 0.6390 0.1899 0.0000
vt 0.6953 0.1899 0.0000
vt 0.7210 0.1899 0.0000
vt 0.7278 0.1086 0.0000
vt 0.7535 0.1086 0.0000
vt 0.7535 0.1340 0.0000
vt 0.7278 0.1340 0.0000
vt 0.7840 0.1086 0.0000
vt 0.7840 0.1340 0.0000
vt 0.8097 0.1086 0.0000
vt 0.8097 0.1340 0.0000
vt 0.7535 0.1644 0.0000
vt 0.7278 0.1644 0.0000
vt 0.7840 0.1644 0.0000
vt 0.8097 0.1644 0.0000
vt 0.7535 0.1899 0.0000
vt 0.7278 0.1899 0.0000
vt 0.7840 0.1899 0.0000
vt 0.8097 0.1899 0.0000
vt 0.8165 0.1086 0.0000
vt 0.8421 0.1086 0.0000
vt 0.8421 0.1340 0.0000
vt 0.8165 0.1340 0.0000
vt 0.8723 0.1086 0.0000
vt 0.8723 0.1340 0.0000
vt 0.8930 0.1086 0.0000
vt 0.8930 0.1357 0.0000
vt 0.8421 0.1644 0.0000
vt 0.8165 0.1644 0.0000
vt 0.8723 0.1644 0.0000
vt 0.8930 0.1645 0.0000
vt 0.8421 0.1899 0.0000
vt 0.8165 0.1899 0.0000
vt 0.8723 0.1899 0.0000
vt 0.8930 0.1899 0.0000
vt 0.8994 0.1130 0.0000
vt 0.9231 0.1130 0.0000
vt 0.9231 0.1357 0.0000
vt 0.8994 0.1357 0.0000
vt 0.9522 0.1130 0.0000
vt 0.9522 0.1357 0.0000
vt 0.9762 0.1130 0.0000
vt 0.9762 0.1357 0.0000
vt 0.9231 0.1645 0.0000
vt 0.8994 0.1645 0.0000
vt 0.9522 0.1645 0.0000
vt 0.9762 0.1645 0.0000
vt 0.9231 0.1871 0.0000
vt 0.8994 0.1871 0.0000
vt 0.9522 0.1871 0.0000
vt 0.9762 0.1871 0.0000
vt 0.9832 0.1098 0.0000
vt 0.9762 0.0221 0.0000
vt 0.9832 0.0270 0.0000
vt 0.8930 0.0302 0.0000
vt 0.8994 0.0221 0.0000
vt 0.9832 0.1914 0.0000
vt 0.9832 0.2735 0.0000
vt 0.9762 0.2775 0.0000
vt 0.8994 0.2775 0.0000
vt 0.8930 0.2688 0.0000
vt 0.9832 0.0844 0.0000
vt 0.9832 0.0541 0.0000
vt 0.9522 0.0221 0.0000
vt 0.9231 0.0221 0.0000
vt 0.8930 0.0844 0.0000
vt 0.8930 0.0541 0.0000
vt 0.9832 0.2156 0.0000
vt 0.9832 0.2458 0.0000
vt 0.9522 0.2775 0.0000
vt 0.9231 0.2775 0.0000
vt 0.8930 0.2156 0.0000
vt 0.8930 0.2458 0.0000
vt 0.9832 0.1357 0.0000
vt 0.9832 0.1645 0.0000
# 120 texture coords

o Object004
g Object004
s 1
f 1/1/1 2/2/2 3/3/3 4/4/4 
f 4/4/4 3/3/3 5/5/5 6/6/6 
f 6/6/6 5/5/5 7/7/7 8/8/8 
f 2/2/2 9/9/9 10/10/10 3/3/3 
f 3/3/3 10/10/10 11/11/11 5/5/5 
f 5/5/5 11/11/11 12/12/12 7/7/7 
f 9/9/9 13/13/13 14/14/14 10/10/10 
f 10/10/10 14/14/14 15/15/15 11/11/11 
f 11/11/11 15/15/15 16/16/16 12/12/12 
f 17/17/17 18/18/18 19/19/19 20/20/20 
f 18/18/18 21/21/21 22/22/22 19/19/19 
f 21/21/21 23/23/23 24/24/24 22/22/22 
f 20/20/20 19/19/19 25/25/25 26/26/26 
f 19/19/19 22/22/22 27/27/27 25/25/25 
f 22/22/22 24/24/24 28/28/28 27/27/27 
f 26/26/26 25/25/25 29/29/29 30/30/30 
f 25/25/25 27/27/27 31/31/31 29/29/29 
f 27/27/27 28/28/28 32/32/32 31/31/31 
f 33/33/33 34/34/34 35/35/35 36/36/36 
f 34/34/34 37/37/37 38/38/38 35/35/35 
f 37/37/37 39/39/39 40/40/40 38/38/38 
f 36/36/36 35/35/35 41/41/41 42/42/42 
f 35/35/35 38/38/38 43/43/43 41/41/41 
f 38/38/38 40/40/40 44/44/44 43/43/43 
f 42/42/42 41/41/41 45/45/45 46/46/46 
f 41/41/41 43/43/43 47/47/47 45/45/45 
f 43/43/43 44/44/44 48/48/48 47/47/47 
f 49/49/49 50/50/50 51/51/51 52/52/52 
f 50/50/50 53/53/53 54/54/54 51/51/51 
f 53/53/53 55/55/55 56/56/56 54/54/54 
f 52/52/52 51/51/51 57/57/57 58/58/58 
f 51/51/51 54/54/54 59/59/59 57/57/57 
f 54/54/54 56/56/56 60/60/60 59/59/59 
f 58/58/58 57/57/57 61/61/61 62/62/62 
f 57/57/57 59/59/59 63/63/63 61/61/61 
f 59/59/59 60/60/60 64/64/64 63/63/63 
f 65/65/65 66/66/66 67/67/67 68/68/68 
f 66/66/66 69/69/69 70/70/70 67/67/67 
f 69/69/69 71/71/71 72/72/72 70/70/70 
f 68/68/68 67/67/67 73/73/73 74/74/74 
f 67/67/67 70/70/70 75/75/75 73/73/73 
f 70/70/70 72/72/72 76/76/76 75/75/75 
f 74/74/74 73/73/73 77/77/77 78/78/78 
f 73/73/73 75/75/75 79/79/79 77/77/77 
f 75/75/75 76/76/76 80/80/80 79/79/79 
f 81/81/81 82/82/82 83/83/83 84/84/84 
f 82/82/82 85/85/85 86/86/86 83/83/83 
f 85/85/85 87/87/87 88/88/88 86/86/86 
f 84/84/84 83/83/83 89/89/89 90/90/90 
f 83/83/83 86/86/86 91/91/91 89/89/89 
f 86/86/86 88/88/88 92/92/92 91/91/91 
f 90/90/90 89/89/89 93/93/93 94/94/94 
f 89/89/89 91/91/91 95/95/95 93/93/93 
f 91/91/91 92/92/92 96/96/96 95/95/95 
f 33/97/33 87/87/87 1/1/1 
f 8/8/8 49/98/49 39/99/39 
f 81/81/81 71/71/71 13/13/13 
f 16/16/16 65/100/65 55/101/55 
f 17/17/17 96/96/96 46/102/46 
f 48/103/48 62/104/62 23/23/23 
f 30/30/30 80/80/80 94/94/94 
f 64/105/64 78/106/78 32/32/32 
f 1/1/1 87/87/87 85/85/85 2/2/2 
f 4/4/4 34/107/34 33/97/33 1/1/1 
f 6/6/6 37/108/37 34/107/34 4/4/4 
f 7/7/7 50/109/50 49/98/49 8/8/8 
f 8/8/8 39/99/39 37/108/37 6/6/6 
f 2/2/2 85/85/85 82/82/82 9/9/9 
f 12/12/12 53/110/53 50/109/50 7/7/7 
f 9/9/9 82/82/82 81/81/81 13/13/13 
f 13/13/13 71/71/71 69/111/69 14/14/14 
f 14/14/14 69/111/69 66/112/66 15/15/15 
f 15/15/15 66/112/66 65/100/65 16/16/16 
f 16/16/16 55/101/55 53/110/53 12/12/12 
f 17/17/17 46/102/46 45/113/45 18/18/18 
f 20/20/20 95/95/95 96/96/96 17/17/17 
f 18/18/18 45/113/45 47/114/47 21/21/21 
f 21/21/21 47/114/47 48/103/48 23/23/23 
f 23/23/23 62/104/62 61/115/61 24/24/24 
f 26/26/26 93/93/93 95/95/95 20/20/20 
f 24/24/24 61/115/61 63/116/63 28/28/28 
f 29/29/29 79/117/79 80/80/80 30/30/30 
f 30/30/30 94/94/94 93/93/93 26/26/26 
f 31/31/31 77/118/77 79/117/79 29/29/29 
f 28/28/28 63/116/63 64/105/64 32/32/32 
f 32/32/32 78/106/78 77/118/77 31/31/31 
f 36/119/36 88/88/88 87/87/87 33/97/33 
f 39/39/39 49/49/49 52/52/52 40/40/40 
f 42/120/42 92/92/92 88/88/88 36/119/36 
f 40/40/40 52/52/52 58/58/58 44/44/44 
f 46/102/46 96/96/96 92/92/92 42/120/42 
f 44/44/44 58/58/58 62/62/62 48/48/48 
f 55/55/55 65/65/65 68/68/68 56/56/56 
f 56/56/56 68/68/68 74/74/74 60/60/60 
f 60/60/60 74/74/74 78/78/78 64/64/64 
f 71/71/71 81/81/81 84/84/84 72/72/72 
f 72/72/72 84/84/84 90/90/90 76/76/76 
f 76/76/76 90/90/90 94/94/94 80/80/80 
# 90 polygons - 8 triangles

